<svg width="40" height="35" viewBox="0 0 40 35" fill="none" xmlns="http://www.w3.org/2000/svg">
<path d="M28.5663 35C25.9103 34.3086 23.9324 32.7819 22.6326 30.4198C21.3329 28 20.683 25.1481 20.683 21.8642C20.683 16.679 22.3218 12.214 25.5995 8.46913C28.9336 4.66667 32.8046 1.84362 37.2125 0L39.925 4.49383L39.8402 5.35803C37.6363 6.16461 35.6867 7.89301 33.9913 10.5432C32.296 13.1934 31.4484 15.9588 31.4484 18.8395C31.4484 20.6831 31.8157 22.2099 32.5503 23.4198C33.285 24.572 34.3022 25.2058 35.6019 25.321L35.3476 27.0494L28.5663 35ZM7.88328 35C5.22726 34.3086 3.24938 32.7819 1.94963 30.4198C0.649876 28 0 25.1481 0 21.8642C0 16.679 1.63882 12.214 4.91645 8.46913C8.2506 4.66667 12.1216 1.84362 16.5295 0L19.242 4.49383L19.1572 5.35803C16.9533 6.16461 15.0037 7.89301 13.3083 10.5432C11.613 13.1934 10.7653 15.9588 10.7653 18.8395C10.7653 20.6831 11.1327 22.2099 11.8673 23.4198C12.6019 24.572 13.6191 25.2058 14.9189 25.321L14.6646 27.0494L7.88328 35Z" fill="#205080"/>
</svg>
